<svg width="199" height="219" viewBox="0 0 199 219" fill="none" xmlns="http://www.w3.org/2000/svg">
<path d="M13.5425 211.575H7.86338V217.298H13.5425V215.792H15.6497V216.861C15.6497 217.688 15.4926 218.253 15.1785 218.555C14.8702 218.852 14.2791 219 13.4054 219H8.00043C7.12101 219 6.52712 218.852 6.21875 218.555C5.91038 218.253 5.7562 217.688 5.7562 216.861V212.096C5.7562 211.275 5.91038 210.713 6.21875 210.411C6.52712 210.109 7.12101 209.958 8.00043 209.958H13.4054C14.2791 209.958 14.8702 210.109 15.1785 210.411C15.4926 210.713 15.6497 211.275 15.6497 212.096V212.952L13.5425 212.969V211.575Z" fill="black"/>
<path d="M18.7515 212.096C18.7515 211.275 18.9057 210.713 19.2141 210.411C19.5224 210.109 20.1163 209.958 20.9957 209.958H27.6599C28.5393 209.958 29.1332 210.109 29.4416 210.411C29.75 210.713 29.9041 211.275 29.9041 212.096V216.861C29.9041 217.688 29.75 218.253 29.4416 218.555C29.1332 218.852 28.5393 219 27.6599 219H20.9957C20.1163 219 19.5224 218.852 19.2141 218.555C18.9057 218.253 18.7515 217.688 18.7515 216.861V212.096ZM20.8587 217.298H27.8055V211.575H20.8587V217.298Z" fill="black"/>
<path d="M33.2715 219V209.958H34.9761L39.2419 215.424L43.4134 209.958H45.1008V219H43.1478V213.414C43.1478 213.305 43.1536 213.169 43.165 213.003C43.1821 212.838 43.2021 212.652 43.2249 212.447C43.1107 212.681 43.0108 212.875 42.9251 213.029C42.8395 213.177 42.7624 213.3 42.6939 213.397L39.2933 217.914H38.8735L35.4644 213.38C35.3387 213.208 35.2302 213.049 35.1389 212.901C35.0532 212.747 34.9818 212.598 34.9247 212.456C34.9418 212.644 34.9533 212.815 34.959 212.969C34.9704 213.123 34.9761 213.271 34.9761 213.414V219H33.2715Z" fill="black"/>
<path d="M55.3551 211.429H50.5497V213.585H55.3551C55.7206 213.585 55.9718 213.536 56.1089 213.439C56.2516 213.343 56.323 213.174 56.323 212.935V212.079C56.323 211.845 56.2516 211.68 56.1089 211.583C55.9718 211.48 55.7206 211.429 55.3551 211.429ZM55.3551 215.073H50.5497V217.375H55.3551C55.7548 217.375 56.0232 217.315 56.1603 217.195C56.303 217.075 56.3744 216.864 56.3744 216.562V215.878C56.3744 215.575 56.303 215.367 56.1603 215.253C56.0232 215.133 55.7548 215.073 55.3551 215.073ZM48.4768 219V209.958H56.2374C56.9512 209.958 57.468 210.097 57.7878 210.377C58.1076 210.656 58.2675 211.101 58.2675 211.711V212.815C58.2675 213.248 58.1333 213.596 57.8649 213.859C57.5965 214.115 57.211 214.275 56.7085 214.338C57.2281 214.406 57.6279 214.591 57.9077 214.894C58.1932 215.196 58.336 215.59 58.336 216.074V217.229C58.336 217.828 58.1161 218.273 57.6764 218.564C57.2367 218.855 56.5686 219 55.672 219H48.4768Z" fill="black"/>
<path d="M63.6735 215.39H67.6394L65.6864 211.711L63.6735 215.39ZM59.6219 219L64.7442 209.958H66.7743L71.9652 219H69.601L68.5132 217.024H62.7741L61.7205 219H59.6219Z" fill="black"/>
<path d="M76.8487 211.575V219H74.7415V211.575H70.5871V209.958H81.0202V211.575H76.8487Z" fill="black"/>
<path d="M96.1408 211.54H90.2133V213.482H95.8582C96.7433 213.482 97.3401 213.633 97.6484 213.936C97.9625 214.238 98.1195 214.8 98.1195 215.621V216.861C98.1195 217.683 97.9625 218.244 97.6484 218.547C97.3401 218.849 96.7433 219 95.8582 219H90.2647C89.3796 219 88.78 218.849 88.4659 218.547C88.1575 218.244 88.0034 217.683 88.0034 216.861V216.613H89.8621V217.298H96.2608V215.236H90.6159C89.7365 215.236 89.1426 215.085 88.8342 214.783C88.5259 214.48 88.3717 213.919 88.3717 213.097V212.096C88.3717 211.275 88.5259 210.713 88.8342 210.411C89.1426 210.109 89.7365 209.958 90.6159 209.958H95.7554C96.6063 209.958 97.1916 210.103 97.5114 210.394C97.8369 210.685 97.9996 211.201 97.9996 211.942V212.131H96.1408V211.54Z" fill="black"/>
<path d="M101.444 219V209.958H103.551V219H101.444Z" fill="black"/>
<path d="M107.107 219V209.958H108.812L113.077 215.424L117.249 209.958H118.936V219H116.983V213.414C116.983 213.305 116.989 213.169 117.001 213.003C117.018 212.838 117.038 212.652 117.061 212.447C116.946 212.681 116.846 212.875 116.761 213.029C116.675 213.177 116.598 213.3 116.529 213.397L113.129 217.914H112.709L109.3 213.38C109.174 213.208 109.066 213.049 108.974 212.901C108.889 212.747 108.817 212.598 108.76 212.456C108.777 212.644 108.789 212.815 108.795 212.969C108.806 213.123 108.812 213.271 108.812 213.414V219H107.107Z" fill="black"/>
<path d="M124.42 209.958V217.298H130.424V209.958H132.523V216.861C132.523 217.688 132.369 218.253 132.06 218.555C131.752 218.852 131.158 219 130.279 219H124.557C123.683 219 123.089 218.852 122.775 218.555C122.467 218.253 122.312 217.688 122.312 216.861V209.958H124.42Z" fill="black"/>
<path d="M136.113 219V209.958H138.22V217.298H145.013V219H136.113Z" fill="black"/>
<path d="M149.065 215.39H153.031L151.078 211.711L149.065 215.39ZM145.014 219L150.136 209.958H152.166L157.357 219H154.993L153.905 217.024H148.166L147.112 219H145.014Z" fill="black"/>
<path d="M162.241 211.575V219H160.133V211.575H155.979V209.958H166.412V211.575H162.241Z" fill="black"/>
<path d="M167.749 212.096C167.749 211.275 167.904 210.713 168.212 210.411C168.52 210.109 169.114 209.958 169.994 209.958H176.658C177.537 209.958 178.131 210.109 178.439 210.411C178.748 210.713 178.902 211.275 178.902 212.096V216.861C178.902 217.688 178.748 218.253 178.439 218.555C178.131 218.852 177.537 219 176.658 219H169.994C169.114 219 168.52 218.852 168.212 218.555C167.904 218.253 167.749 217.688 167.749 216.861V212.096ZM169.857 217.298H176.803V211.575H169.857V217.298Z" fill="black"/>
<path d="M189.096 211.523H184.359V214.038H189.096C189.462 214.038 189.71 213.987 189.841 213.884C189.979 213.776 190.047 213.588 190.047 213.32V212.233C190.047 211.971 189.979 211.788 189.841 211.686C189.71 211.577 189.462 211.523 189.096 211.523ZM182.286 219V209.958H190.03C190.749 209.958 191.269 210.097 191.589 210.377C191.914 210.651 192.077 211.095 192.077 211.711V213.833C192.077 214.443 191.914 214.888 191.589 215.168C191.269 215.447 190.749 215.587 190.03 215.587H188.848L193.028 219H190.004L186.355 215.587H184.359V219H182.286Z" fill="black"/>
<path d="M0 198.743V195.824L14.1884 176.712H1.42076V171.915H21.7915V174.58L7.39182 193.692H21.7915V198.743H0Z" fill="black"/>
<path d="M27.2656 198.743V171.915H48.0395V176.484H31.9887V182.473H41.3581V187.042H31.9887V193.692H48.2315V198.743H27.2656Z" fill="black"/>
<path d="M54.1665 178.26C54.1665 175.824 54.5121 174.157 55.2032 173.26C55.8944 172.363 57.2256 171.915 59.1967 171.915H74.134C76.1051 171.915 77.4363 172.363 78.1275 173.26C78.8187 174.157 79.1642 175.824 79.1642 178.26V192.397C79.1642 194.851 78.8187 196.526 78.1275 197.423C77.4363 198.303 76.1051 198.743 74.134 198.743H59.1967C57.2256 198.743 55.8944 198.303 55.2032 197.423C54.5121 196.526 54.1665 194.851 54.1665 192.397V178.26ZM58.8896 193.692H74.4604V176.712H58.8896V193.692Z" fill="black"/>
<path d="M104.337 176.61H91.0511V182.372H103.704C105.687 182.372 107.025 182.82 107.716 183.717C108.42 184.614 108.772 186.281 108.772 188.717V192.397C108.772 194.834 108.42 196.501 107.716 197.397C107.025 198.294 105.687 198.743 103.704 198.743H91.1663C89.1823 198.743 87.8383 198.294 87.1344 197.397C86.4432 196.501 86.0976 194.834 86.0976 192.397V191.661H90.2639V193.692H104.606V187.575H91.9534C89.9823 187.575 88.6511 187.127 87.9599 186.23C87.2687 185.333 86.9232 183.666 86.9232 181.23V178.26C86.9232 175.824 87.2687 174.157 87.9599 173.26C88.6511 172.363 89.9823 171.915 91.9534 171.915H103.473C105.38 171.915 106.692 172.346 107.409 173.209C108.139 174.072 108.503 175.604 108.503 177.803V178.362H104.337V176.61Z" fill="black"/>
<path d="M112.922 187.575V182.22H122.08V187.575H112.922Z" fill="black"/>
<path d="M126.844 198.743V171.915H147.368V176.61H131.567V183.666H140.11V188.565H131.567V198.743H126.844Z" fill="black"/>
<path d="M166.128 176.56H155.511V183.666H166.128C166.947 183.666 167.504 183.514 167.798 183.209C168.106 182.888 168.259 182.33 168.259 181.534V178.666C168.259 177.888 168.106 177.346 167.798 177.042C167.504 176.72 166.947 176.56 166.128 176.56ZM150.864 198.743V171.915H168.221C169.834 171.915 170.998 172.33 171.715 173.159C172.445 173.971 172.81 175.291 172.81 177.118V183.108C172.81 184.918 172.445 186.238 171.715 187.067C170.998 187.88 169.834 188.286 168.221 188.286H155.511V198.743H150.864Z" fill="black"/>
<path d="M184.581 198.743L172.85 171.915H178.245L186.463 191.306L194.296 171.915H199L187.845 198.743H184.581Z" fill="black"/>
<path d="M87.7134 82.3987L165.894 0.0849867L125.24 69.5326L149.197 70.6794L70.3277 144.464L110.986 83.5127L87.7134 82.3987Z" fill="black"/>
<path d="M66.0364 81.7073L64.7925 86.3434C62.8335 93.6452 67.1726 101.151 74.4839 103.107L79.841 104.541L77.4455 113.469L69.86 111.439C59.0393 108.544 52.6177 97.4359 55.5171 86.6292L57.4538 79.4104L66.0364 81.7073Z" fill="black"/>
<path d="M81.1496 55.3784C82.5602 50.1212 87.9711 47.0012 93.2351 48.4098L98.0079 49.6871C96.781 54.2601 98.6026 58.9309 102.228 61.5493L79.1651 85.8318L102.437 86.9458L99.4244 91.4621C99.0878 91.336 98.742 91.2247 98.3875 91.1298C92.4624 89.5443 86.3723 93.0563 84.7847 98.9736L80.0117 97.6963C74.7477 96.2876 71.6237 90.8837 73.0341 85.6265L74.2173 81.2165L74.2175 81.2168C80.1425 82.8023 86.2326 79.2908 87.8202 73.3735C89.4078 67.4561 85.8918 61.3737 79.9668 59.7881L81.1496 55.3784Z" fill="black"/>
<path d="M66.5771 45.4058C69.4765 34.5991 80.5988 28.1859 91.4195 31.0815L99.0053 33.1114L96.7056 41.6829L91.3483 40.2492C84.0371 38.2928 76.5219 42.6261 74.5628 49.9277L73.1273 55.2784L64.5446 52.9818L66.5771 45.4058Z" fill="black"/>
<path d="M167.204 39.2347V114.224L100.134 153.3L88.5602 146.682L93.1975 139.192L99.9112 143.034L157.884 109.226V44.3475L153.505 41.7832L158.306 34.0295L167.204 39.2347Z" fill="black"/>
<path d="M131.702 18.4666L127.031 26.2819L99.9112 10.4025L40.8416 44.3475V109.226L68.1198 124.839L63.596 132.407L31.7961 114.224V39.2347L100.134 0L131.702 18.4666Z" fill="black"/>
</svg>
